<svg width="36" height="30" viewBox="0 0 36 30" fill="none" xmlns="http://www.w3.org/2000/svg">
<path d="M35.5 10.0079C35.5 10.5352 35.5 11.0624 35.4795 11.6005C35.4338 11.6393 35.3941 11.6619 35.3856 11.696C35.0269 13.1449 34.6782 14.5975 34.3129 16.0439C33.666 18.6057 33.0075 21.1631 32.3571 23.7236C32.0024 25.1198 31.6417 26.5141 31.3069 27.9174C30.9902 29.2449 30.2935 29.848 29.1488 29.8458C20.2553 29.829 11.3617 29.8376 2.46817 29.8347C1.67146 29.8345 1.04678 29.4485 0.655298 28.5737C0.626676 28.5098 0.552824 28.4756 0.5 28.4276C0.5 28.3654 0.5 28.3032 0.515684 28.1865C1.25564 25.2083 1.98083 22.2848 2.70394 19.3605C3.43363 16.4096 4.17005 13.461 4.88465 10.5047C5.11141 9.56664 5.70107 8.91448 6.60309 8.91673C14.658 8.9369 22.713 8.92906 30.768 8.92483C30.9579 8.92473 31.1478 8.87064 31.3692 8.84373C32.2163 8.84591 33.0322 8.83161 33.8475 8.85109C34.4422 8.86531 34.9461 9.12331 35.2769 9.77009C35.3269 9.86776 35.4245 9.92954 35.5 10.0079Z" fill="#F6B863"/>
<path d="M0.5 1.43556C0.544308 1.37327 0.611503 1.36485 0.629533 1.32425C0.966867 0.564737 1.5044 0.235401 2.19749 0.235267C4.79449 0.234767 7.39151 0.242038 9.98847 0.230611C10.722 0.227384 11.2651 0.613369 11.6247 1.35372C12.1995 2.53686 12.7515 3.73673 13.2933 4.94269C13.4109 5.20454 13.5615 5.21603 13.7603 5.21591C19.0454 5.21272 24.3306 5.21932 29.6157 5.20821C30.6363 5.20606 31.3236 6.05636 31.3292 7.29003C31.3339 8.31305 31.3308 9.33613 31.3344 10.3976C31.1478 10.4649 30.9579 10.519 30.768 10.5191C22.713 10.5233 14.658 10.5312 6.60309 10.511C5.70107 10.5088 5.11141 11.1609 4.88465 12.099C4.17005 15.0553 3.43363 18.0039 2.70394 20.9548C1.98083 23.8791 1.25564 26.8026 0.515684 29.7497C0.5 20.3401 0.5 10.9073 0.5 1.43556Z" fill="#EAA14E"/>
</svg>
