<svg width="110" height="107" viewBox="0 0 110 107" fill="none" xmlns="http://www.w3.org/2000/svg">
<g clip-path="url(#clip0_377_174)">
<path d="M103.125 35.7113L96.25 15.6488C96.0109 14.9567 95.5454 14.3598 94.9247 13.9492C94.3039 13.5386 93.5621 13.337 92.8125 13.375H17.1875C16.4379 13.337 15.6961 13.5386 15.0754 13.9492C14.4547 14.3598 13.9892 14.9567 13.75 15.6488L6.87503 35.7113C6.82551 36.0663 6.82551 36.4262 6.87503 36.7813V56.8438C6.87503 57.7306 7.2372 58.5811 7.88185 59.2082C8.52651 59.8352 9.40085 60.1875 10.3125 60.1875H13.75V93.625H20.625V60.1875H41.25V93.625H96.25V60.1875H99.6875C100.599 60.1875 101.474 59.8352 102.118 59.2082C102.763 58.5811 103.125 57.7306 103.125 56.8438V36.7813C103.175 36.4262 103.175 36.0663 103.125 35.7113ZM89.375 86.9375H48.125V60.1875H89.375V86.9375ZM96.25 53.5H82.5V40.125H75.625V53.5H58.4375V40.125H51.5625V53.5H34.375V40.125H27.5V53.5H13.75V37.3163L19.6625 20.0625H90.3375L96.25 37.3163V53.5Z" fill="black"/>
</g>
<defs>
<clipPath id="clip0_377_174">
<rect width="110" height="107" fill="white"/>
</clipPath>
</defs>
</svg>
